<?xml version="1.0" standalone="no"?>
<!DOCTYPE svg PUBLIC "-//W3C//DTD SVG 20010904//EN"
 "http://www.w3.org/TR/2001/REC-SVG-20010904/DTD/svg10.dtd">
<svg version="1.0" xmlns="http://www.w3.org/2000/svg"
 width="326.000000pt" height="365.000000pt" viewBox="0 0 326.000000 365.000000"
 preserveAspectRatio="xMidYMid meet">

<g transform="translate(0.000000,365.000000) scale(0.100000,-0.100000)"
fill="rgba(0, 0, 139, 0.1)" stroke="none">
<path d="M1425 3589 c-232 -31 -464 -120 -660 -253 -133 -90 -343 -303 -433
-439 -354 -539 -399 -1217 -117 -1791 84 -172 225 -367 335 -463 l48 -43 -73
-197 c-40 -109 -84 -227 -99 -262 -14 -35 -24 -66 -22 -69 6 -6 108 16 211 45
50 14 144 38 210 54 66 17 149 38 185 49 114 34 336 60 508 60 210 -1 231 -4
896 -136 208 -41 380 -73 383 -71 2 3 -3 22 -12 43 -10 22 -56 134 -104 250
l-87 211 43 37 c57 50 178 194 240 286 143 214 242 467 285 735 16 104 16 427
-1 530 -93 575 -429 1049 -906 1281 -210 102 -378 142 -610 149 -82 2 -181 0
-220 -6z m145 -355 c0 -8 -920 -2505 -929 -2522 -17 -30 -173 196 -251 361
-117 251 -167 533 -142 805 20 222 60 376 147 557 187 391 507 665 894 765
113 30 281 50 281 34z m240 -15 c452 -84 837 -420 1025 -893 89 -225 124 -535
90 -786 -34 -254 -113 -465 -253 -675 -33 -49 -73 -106 -90 -125 l-30 -35 -12
30 c-28 71 -430 1166 -430 1170 0 3 61 50 135 106 75 56 134 103 132 105 -2 2
-70 -21 -152 -51 -81 -30 -151 -53 -154 -50 -6 7 -41 96 -41 106 0 3 92 66
205 139 113 73 203 135 201 138 -3 2 -99 -32 -213 -76 -114 -44 -214 -82 -222
-84 -8 -2 -22 19 -36 57 l-23 60 244 159 c230 149 282 186 216 152 -15 -8
-135 -55 -265 -104 -241 -92 -243 -92 -251 -50 -3 15 -11 37 -37 100 -28 68
-229 617 -229 624 0 8 113 -3 190 -17z m192 -1634 c250 -478 464 -892 477
-920 13 -27 84 -164 158 -304 74 -139 133 -255 131 -256 -2 -2 -90 26 -196 61
-190 64 -409 115 -707 165 -161 27 -364 35 -495 20 -215 -25 -507 -100 -758
-196 -94 -36 -176 -65 -181 -65 -14 0 138 361 219 520 21 41 218 467 438 945
220 479 408 887 418 908 18 37 18 37 30 15 6 -13 216 -414 466 -893z"/>
<path d="M1090 920 l0 -210 125 0 125 0 0 40 0 40 -80 0 -80 0 0 45 0 45 70 0
70 0 0 40 0 40 -70 0 -70 0 0 45 0 45 75 0 75 0 0 40 0 40 -120 0 -120 0 0
-210z"/>
<path d="M1410 920 l0 -210 45 0 45 0 0 80 c0 78 1 80 24 80 27 0 53 -29 101
-112 27 -48 27 -48 81 -48 l53 0 -42 66 c-23 37 -54 80 -69 96 l-26 28 29 15
c53 28 73 98 44 154 -22 43 -78 61 -190 61 l-95 0 0 -210z m181 130 c12 -7 19
-21 19 -42 0 -44 -25 -68 -72 -68 l-38 0 0 60 0 60 36 0 c19 0 44 -5 55 -10z"/>
<path d="M1800 921 l0 -211 45 0 45 0 0 75 0 75 38 0 c128 0 204 83 170 185
-22 65 -51 78 -183 83 l-115 5 0 -212z m190 119 c45 -45 10 -110 -60 -110
l-40 0 0 65 0 65 40 0 c27 0 47 -7 60 -20z"/>
<path d="M2260 550 c0 -93 1 -100 20 -100 19 0 20 7 20 100 0 93 -1 100 -20
100 -19 0 -20 -7 -20 -100z"/>
<path d="M707 579 c-46 -27 -40 -113 9 -125 32 -8 74 3 74 19 0 9 -11 12 -34
9 -24 -3 -35 1 -39 12 -5 13 2 16 38 16 41 0 45 2 45 24 0 26 -33 56 -60 56
-8 0 -23 -5 -33 -11z m58 -29 c4 -6 -7 -10 -25 -10 -18 0 -29 4 -25 10 3 6 15
10 25 10 10 0 22 -4 25 -10z"/>
<path d="M830 520 c0 -63 2 -70 19 -70 17 0 20 8 23 53 3 44 6 52 23 52 17 0
20 -8 23 -52 3 -45 6 -53 23 -53 16 0 19 7 19 39 0 77 -31 117 -71 92 -12 -7
-19 -7 -19 -1 0 5 -9 10 -20 10 -18 0 -20 -7 -20 -70z"/>
<path d="M1004 565 c-21 -21 -24 -31 -19 -58 10 -49 50 -70 99 -51 30 12 17
30 -18 26 -24 -3 -35 1 -39 12 -5 13 2 16 38 16 41 0 45 2 45 23 0 29 -29 57
-59 57 -12 0 -33 -11 -47 -25z m71 -15 c4 -6 -7 -10 -25 -10 -18 0 -29 4 -25
10 3 6 15 10 25 10 10 0 22 -4 25 -10z"/>
<path d="M1140 520 c0 -63 2 -70 19 -70 17 0 20 8 23 48 3 40 6 47 26 50 14 2
22 10 22 23 0 21 -20 25 -38 7 -9 -9 -12 -9 -12 0 0 7 -9 12 -20 12 -18 0 -20
-7 -20 -70z"/>
<path d="M1260 563 c-25 -33 -26 -67 0 -93 23 -23 50 -26 68 -8 9 9 12 7 12
-10 0 -23 -35 -38 -69 -29 -13 3 -18 0 -17 -12 4 -26 67 -26 99 -1 25 20 27
27 27 100 l0 78 -50 0 c-42 1 -53 -3 -70 -25z m80 -23 c14 -26 -3 -60 -30 -60
-24 0 -38 44 -20 65 17 21 37 19 50 -5z"/>
<path d="M1432 520 c25 -57 29 -72 18 -85 -7 -8 -19 -15 -26 -15 -8 0 -14 -7
-14 -15 0 -16 17 -19 45 -9 19 8 35 38 69 128 23 59 23 66 8 66 -12 0 -23 -17
-36 -52 l-19 -53 -15 53 c-12 43 -18 52 -38 52 l-23 0 31 -70z"/>
<path d="M1645 574 c-22 -22 -15 -46 18 -62 37 -18 35 -35 -3 -30 -24 4 -30 1
-28 -11 2 -9 15 -17 30 -19 66 -8 96 54 38 78 -36 15 -39 30 -5 30 16 0 25 6
25 15 0 21 -54 20 -75 -1z"/>
<path d="M1760 531 c0 -71 16 -91 61 -74 16 6 29 7 29 2 0 -5 7 -9 15 -9 12 0
15 14 15 70 0 63 -2 70 -20 70 -15 0 -18 -6 -16 -28 6 -47 -4 -82 -25 -82 -19
0 -24 18 -19 83 1 21 -3 27 -19 27 -19 0 -21 -6 -21 -59z"/>
<path d="M1920 490 c0 -93 1 -100 20 -100 16 0 20 7 20 35 0 32 2 35 24 29 36
-9 64 11 72 51 11 62 -46 111 -84 73 -9 -9 -12 -9 -12 0 0 7 -9 12 -20 12 -19
0 -20 -7 -20 -100z m96 55 c4 -8 3 -27 0 -41 -5 -19 -12 -25 -29 -22 -22 3
-34 35 -23 64 7 19 45 18 52 -1z"/>
<path d="M2090 490 c0 -93 1 -100 20 -100 16 0 20 7 20 35 0 32 2 35 24 29 13
-3 33 -1 45 5 25 14 37 71 22 100 -14 26 -56 37 -76 21 -10 -9 -15 -9 -15 -1
0 6 -9 11 -20 11 -19 0 -20 -7 -20 -100z m96 55 c4 -8 3 -27 0 -41 -5 -19 -12
-25 -29 -22 -22 3 -34 35 -23 64 7 19 45 18 52 -1z"/>
<path d="M2352 520 c25 -57 29 -72 18 -85 -7 -8 -19 -15 -26 -15 -8 0 -14 -7
-14 -15 0 -16 17 -19 45 -9 19 8 35 38 69 128 23 61 24 66 7 66 -12 0 -22 -13
-31 -42 -20 -63 -25 -64 -39 -8 -11 42 -17 50 -36 50 l-24 0 31 -70z"/>
</g>
</svg>
